<svg xmlns="http://www.w3.org/2000/svg" version="1.1" xmlns:xlink="http://www.w3.org/1999/xlink" xmlns:svgjs="http://svgjs.dev/svgjs" width="1000" height="1000" viewBox="0 0 1000 1000"><rect width="1000" height="1000" fill="#6936f5"></rect><g transform="matrix(0.7,0,0,0.7,150,106.25)"><svg viewBox="0 0 320 360" data-background-color="#6936f5" preserveAspectRatio="xMidYMid meet" height="1125" width="1000" xmlns="http://www.w3.org/2000/svg" xmlns:xlink="http://www.w3.org/1999/xlink"><g id="tight-bounds" transform="matrix(1,0,0,1,0,0)"><svg viewBox="0 0 320 360" height="360" width="320"><g><svg></svg></g><g><svg viewBox="0 0 320 360" height="360" width="320"><g><path xmlns="http://www.w3.org/2000/svg" d="M320 141.95l-19.957-19.957v-28.224l-53.812-53.812h-28.223l-19.958-19.957h-76.1l-19.957 19.957h-28.224l-53.812 53.812v28.224l-19.957 19.957v76.104l19.957 19.958v28.223l53.816 53.808h28.224l19.957 19.957h76.104l19.958-19.957h28.223l53.812-53.812v-28.224l19.949-19.957zM244.374 44.437l51.189 51.189v21.887l-73.076-73.076zM295.563 123.849v112.306l-79.408 79.408h-112.306l-79.412-79.412v-112.302l79.412-79.412h112.306zM123.807 24.48h72.39l15.478 15.477h-103.346zM24.437 95.626l51.189-51.189h21.887l-73.076 73.076zM4.484 216.197v-72.394l15.477-15.478v103.342zM75.626 315.563l-51.189-51.189v-21.887l73.076 73.076zM196.197 335.52h-72.39l-15.478-15.477h103.342zM295.563 264.374l-51.189 51.189h-21.887l73.076-73.076zM315.52 216.197l-15.477 15.478v-103.346l15.477 15.478z" fill="#ffffff" fill-rule="nonzero" stroke="none" stroke-width="1" stroke-linecap="butt" stroke-linejoin="miter" stroke-miterlimit="10" stroke-dasharray="" stroke-dashoffset="0" font-family="none" font-weight="none" font-size="none" text-anchor="none" style="mix-blend-mode: normal" data-fill-palette-color="tertiary"></path></g><g transform="matrix(1,0,0,1,56,128.830140128309)"><svg viewBox="0 0 208 102.33971974338198" height="102.33971974338198" width="208"><g><svg viewBox="0 0 424.9311581348949 209.0737290084417" height="102.33971974338198" width="208"><g><rect width="14.174598827678354" height="209.0737290084417" x="165.65027965360827" y="0" fill="#ffffff" opacity="1" stroke-width="0" stroke="transparent" fill-opacity="1" class="rect-o-0" data-fill-palette-color="primary" rx="1%" id="o-0" data-palette-color="#ffffff"></rect></g><g transform="matrix(1,0,0,1,216.93115813489487,0.5200839030060678)"><svg viewBox="0 0 208 208.03356120242955" height="208.03356120242955" width="208"><g id="textblocktransform"><svg viewBox="0 0 208 208.03356120242955" height="208.03356120242955" width="208" id="textblock"><g><svg viewBox="0 0 208 157.17938144329898" height="157.17938144329898" width="208"><g transform="matrix(1,0,0,1,0,0)"><svg width="208" viewBox="3.549999952316284 -36.54999923706055 48.5 36.64999771118164" height="157.17938144329898" data-palette-color="#ffffff"><path d="M22.95 0.1L22.95 0.1Q22.35 0.1 21.88-0.4 21.4-0.9 21.05-1.55L21.05-1.55 13.55-16.2 7.75-16.2 7.75-1.5Q7.75-0.75 7.1-0.38 6.45 0 5.65 0L5.65 0Q4.9 0 4.23-0.38 3.55-0.75 3.55-1.5L3.55-1.5 3.55-35.1Q3.55-35.7 3.98-36.1 4.4-36.5 5.05-36.55L5.05-36.55 14.2-36.55Q17.25-36.55 19.78-35.63 22.3-34.7 23.8-32.52 25.3-30.35 25.3-26.55L25.3-26.55Q25.3-23.5 24.33-21.5 23.35-19.5 21.65-18.38 19.95-17.25 17.85-16.8L17.85-16.8 25.25-2.75Q25.35-2.55 25.4-2.38 25.45-2.2 25.45-2.05L25.45-2.05Q25.45-1.5 25.08-1 24.7-0.5 24.13-0.2 23.55 0.1 22.95 0.1ZM7.75-32.75L7.75-19.7 14.2-19.7Q17.3-19.7 19.2-21.2 21.1-22.7 21.1-26.25L21.1-26.25Q21.1-29.8 19.2-31.28 17.3-32.75 14.2-32.75L14.2-32.75 7.75-32.75ZM42.15 0L32.4 0Q31.55 0 31.02-0.43 30.5-0.85 30.5-1.45L30.5-1.45 30.5-35.05Q30.5-35.8 31.1-36.18 31.7-36.55 32.4-36.55L32.4-36.55 41-36.55Q43.75-36.55 46.07-35.88 48.4-35.2 49.77-33.35 51.15-31.5 51.15-28L51.15-28Q51.15-24.85 50-22.75 48.85-20.65 46.9-19.8L46.9-19.8Q48.45-19.2 49.6-18.18 50.75-17.15 51.4-15.53 52.05-13.9 52.05-11.3L52.05-11.3 52.05-10.4Q52.05-6.55 50.75-4.28 49.45-2 47.2-1 44.95 0 42.15 0L42.15 0ZM34.7-18.05L34.7-3.8 41.45-3.8Q44.5-3.8 46.17-5.45 47.85-7.1 47.85-10.65L47.85-10.65 47.85-11.5Q47.85-15.1 46.17-16.57 44.5-18.05 41.45-18.05L41.45-18.05 34.7-18.05ZM34.7-32.75L34.7-21.55 40.95-21.55Q44.05-21.55 45.5-22.93 46.95-24.3 46.95-27.4L46.95-27.4Q46.95-29.45 46.17-30.63 45.4-31.8 44.02-32.27 42.65-32.75 40.8-32.75L40.8-32.75 34.7-32.75Z" opacity="1" transform="matrix(1,0,0,1,0,0)" fill="#ffffff" class="wordmark-text-0" data-fill-palette-color="primary" id="text-0"></path></svg></g></svg></g><g transform="matrix(1,0,0,1,0,194.28566109690723)"><svg viewBox="0 0 197.6 13.747900105522334" height="13.747900105522334" width="197.6"><g transform="matrix(1,0,0,1,0,0)"><svg width="197.6" viewBox="3.200000047683716 -38 710.6599731445312 49.45000076293945" height="13.747900105522334" data-palette-color="#ffffff"><path d="M13.9 0.3L13.9 0.3Q11 0.3 8.55-0.78 6.1-1.85 4.65-4.25 3.2-6.65 3.2-10.6L3.2-10.6 3.2-25.65Q3.2-29.6 4.67-32 6.15-34.4 8.6-35.48 11.05-36.55 13.95-36.55L13.95-36.55Q17.35-36.55 19.75-35.4 22.15-34.25 23.45-32.27 24.75-30.3 24.75-27.85L24.75-27.85Q24.75-26.45 24.23-26 23.7-25.55 22.65-25.55L22.65-25.55Q21.65-25.55 21.13-25.95 20.6-26.35 20.55-27L20.55-27Q20.5-27.75 20.28-28.73 20.05-29.7 19.38-30.63 18.7-31.55 17.43-32.15 16.15-32.75 14.05-32.75L14.05-32.75Q10.85-32.75 9.13-31.03 7.4-29.3 7.4-25.65L7.4-25.65 7.4-10.6Q7.4-6.95 9.15-5.23 10.9-3.5 14.2-3.5L14.2-3.5Q16.3-3.5 17.53-4.1 18.75-4.7 19.35-5.6 19.95-6.5 20.2-7.53 20.45-8.55 20.55-9.45L20.55-9.45Q20.6-10.2 21.15-10.55 21.7-10.9 22.65-10.9L22.65-10.9Q23.7-10.9 24.23-10.43 24.75-9.95 24.75-8.55L24.75-8.55Q24.75-6.1 23.43-4.08 22.1-2.05 19.68-0.88 17.25 0.3 13.9 0.3ZM38.5 0.4L38.5 0.4Q35.85 0.4 33.6-0.98 31.35-2.35 30-4.55 28.65-6.75 28.65-9.3L28.65-9.3 28.65-14.4Q28.65-16.95 29.97-19.13 31.3-21.3 33.55-22.65 35.8-24 38.5-24L38.5-24Q41.15-24 43.4-22.68 45.65-21.35 47.02-19.2 48.4-17.05 48.4-14.4L48.4-14.4 48.4-9.3Q48.4-6.8 47.02-4.58 45.65-2.35 43.4-0.98 41.15 0.4 38.5 0.4ZM38.5-3.35L38.5-3.35Q40.1-3.35 41.37-4.2 42.65-5.05 43.45-6.43 44.25-7.8 44.25-9.3L44.25-9.3 44.25-14.4Q44.25-15.85 43.47-17.2 42.7-18.55 41.4-19.4 40.1-20.25 38.5-20.25L38.5-20.25Q36.9-20.25 35.6-19.4 34.3-18.55 33.55-17.2 32.8-15.85 32.8-14.4L32.8-14.4 32.8-9.3Q32.8-7.8 33.55-6.43 34.3-5.05 35.6-4.2 36.9-3.35 38.5-3.35ZM61.35 0.4L61.35 0.4Q59 0.4 56.97-0.98 54.95-2.35 53.72-4.58 52.5-6.8 52.5-9.3L52.5-9.3 52.5-14.4Q52.5-17.05 53.72-19.2 54.95-21.35 56.97-22.68 59-24 61.45-24L61.45-24Q63.85-24 65.52-22.83 67.2-21.65 68-20.2L68-20.2 68-36.55Q68-37.2 68.62-37.6 69.25-38 70.15-38L70.15-38Q71.05-38 71.6-37.6 72.15-37.2 72.15-36.55L72.15-36.55 72.15-1.5Q72.15-0.95 71.6-0.48 71.05 0 70.15 0L70.15 0Q69.35 0 68.77-0.48 68.2-0.95 68.2-1.5L68.2-1.5 68.2-3.5Q67.45-1.95 65.55-0.78 63.65 0.4 61.35 0.4ZM62.35-3.35L62.35-3.35Q63.95-3.35 65.22-4.23 66.5-5.1 67.25-6.2 68-7.3 68-7.95L68-7.95 68-14.4Q68-16.25 67.17-17.53 66.35-18.8 65.05-19.53 63.75-20.25 62.4-20.25L62.4-20.25Q60.8-20.25 59.5-19.4 58.2-18.55 57.42-17.2 56.65-15.85 56.65-14.4L56.65-14.4 56.65-9.3Q56.65-7.85 57.42-6.45 58.2-5.05 59.5-4.2 60.8-3.35 62.35-3.35ZM80.14 0L80.14 0Q79.24 0 78.67-0.48 78.09-0.95 78.09-1.5L78.09-1.5 78.09-22.25Q78.09-22.9 78.67-23.3 79.24-23.7 80.14-23.7L80.14-23.7Q80.99-23.7 81.62-23.3 82.24-22.9 82.24-22.25L82.24-22.25 82.24-1.5Q82.24-0.95 81.62-0.48 80.99 0 80.14 0ZM80.14-30.2L80.14-30.2Q79.04-30.2 78.29-30.93 77.54-31.65 77.54-32.6L77.54-32.6Q77.54-33.55 78.29-34.25 79.04-34.95 80.14-34.95L80.14-34.95Q81.19-34.95 81.94-34.25 82.69-33.55 82.69-32.6L82.69-32.6Q82.69-31.65 81.94-30.93 81.19-30.2 80.14-30.2ZM90.14 0L90.14 0Q89.24 0 88.67-0.48 88.09-0.95 88.09-1.5L88.09-1.5 88.09-22.25Q88.09-22.9 88.67-23.3 89.24-23.7 90.14-23.7L90.14-23.7Q90.94-23.7 91.49-23.3 92.04-22.9 92.04-22.25L92.04-22.25 92.04-20.2Q92.84-21.65 94.54-22.83 96.24-24 98.74-24L98.74-24Q101.14-24 103.14-22.68 105.14-21.35 106.34-19.2 107.54-17.05 107.54-14.4L107.54-14.4 107.54-1.5Q107.54-0.75 106.89-0.38 106.24 0 105.44 0L105.44 0Q104.69 0 104.04-0.38 103.39-0.75 103.39-1.5L103.39-1.5 103.39-14.4Q103.39-15.85 102.62-17.2 101.84-18.55 100.54-19.4 99.24-20.25 97.69-20.25L97.69-20.25Q96.34-20.25 95.09-19.53 93.84-18.8 93.04-17.53 92.24-16.25 92.24-14.4L92.24-14.4 92.24-1.5Q92.24-0.95 91.62-0.48 90.99 0 90.14 0ZM121.84 11.45L121.84 11.45Q118.89 11.45 116.54 10.63 114.19 9.8 112.81 8.28 111.44 6.75 111.44 4.7L111.44 4.7Q111.44 2.6 112.66 1.28 113.89-0.05 115.49-0.75L115.49-0.75Q114.39-1.15 113.66-1.93 112.94-2.7 112.94-4.1L112.94-4.1Q112.94-5.5 113.64-6.33 114.34-7.15 115.44-7.8L115.44-7.8Q114.09-8.9 113.34-10.53 112.59-12.15 112.59-14.1L112.59-14.1 112.59-15.75Q112.59-18.2 113.69-20.05 114.79-21.9 116.81-22.95 118.84-24 121.54-24L121.54-24Q123.29-24 124.76-23.48 126.24-22.95 127.34-22.05L127.34-22.05Q128.14-23.7 129.01-24.5 129.89-25.3 130.74-25.3L130.74-25.3Q131.64-25.3 132.09-24.8 132.54-24.3 132.54-23.75L132.54-23.75Q132.54-23.35 132.29-23.05 132.04-22.75 131.69-22.6L131.69-22.6Q131.14-22.45 130.41-22 129.69-21.55 129.04-20.5L129.04-20.5Q129.79-19.55 130.16-18.32 130.54-17.1 130.54-15.75L130.54-15.75 130.54-14.1Q130.54-11.75 129.39-9.85 128.24-7.95 126.19-6.88 124.14-5.8 121.49-5.8L121.49-5.8Q119.44-5.8 117.84-6.55L117.84-6.55Q117.34-6.25 116.94-5.88 116.54-5.5 116.54-4.85L116.54-4.85Q116.54-3.8 117.66-3.35 118.79-2.9 120.54-2.7 122.29-2.5 124.24-2.25 126.19-2 127.94-1.38 129.69-0.75 130.81 0.55 131.94 1.85 131.94 4.15L131.94 4.15Q131.94 6.6 130.59 8.22 129.24 9.85 126.96 10.65 124.69 11.45 121.84 11.45ZM121.74 8.55L121.74 8.55Q124.59 8.55 126.24 7.38 127.89 6.2 127.89 4.25L127.89 4.25Q127.89 2.85 127.04 2.08 126.19 1.3 124.84 0.93 123.49 0.55 122.01 0.43 120.54 0.3 119.34 0.15L119.34 0.15Q117.74 0.65 116.56 1.65 115.39 2.65 115.39 4.25L115.39 4.25Q115.39 6.2 117.14 7.38 118.89 8.55 121.74 8.55ZM121.59-8.65L121.59-8.65Q123.89-8.65 125.19-10.2 126.49-11.75 126.49-14.1L126.49-14.1 126.49-15.75Q126.49-18.05 125.19-19.6 123.89-21.15 121.54-21.15L121.54-21.15Q119.19-21.15 117.91-19.6 116.64-18.05 116.64-15.75L116.64-15.75 116.64-14.15Q116.64-11.8 117.94-10.23 119.24-8.65 121.59-8.65ZM155.88 0L154.33 0Q150.28 0 148.16-1.8 146.03-3.6 146.03-7.55L146.03-7.55 146.03-33.3Q146.03-33.95 146.68-34.35 147.33-34.75 148.08-34.75L148.08-34.75Q148.88-34.75 149.53-34.35 150.18-33.95 150.18-33.3L150.18-33.3 150.18-23.7 156.48-23.7Q157.08-23.7 157.41-23.2 157.73-22.7 157.73-22.05L157.73-22.05Q157.73-21.4 157.41-20.93 157.08-20.45 156.48-20.45L156.48-20.45 150.18-20.45 150.18-7.55Q150.18-5.4 151.11-4.53 152.03-3.65 154.33-3.65L154.33-3.65 155.88-3.65Q156.78-3.65 157.23-3.1 157.68-2.55 157.68-1.85L157.68-1.85Q157.68-1.15 157.23-0.58 156.78 0 155.88 0L155.88 0ZM163.68 0L163.68 0Q162.78 0 162.2-0.48 161.63-0.95 161.63-1.5L161.63-1.5 161.63-36.55Q161.63-37.2 162.2-37.6 162.78-38 163.68-38L163.68-38Q164.53-38 165.16-37.6 165.78-37.2 165.78-36.55L165.78-36.55 165.78-20.2Q166.58-21.65 168.2-22.83 169.83-24 172.28-24L172.28-24Q174.68-24 176.68-22.68 178.68-21.35 179.88-19.2 181.08-17.05 181.08-14.4L181.08-14.4 181.08-1.5Q181.08-0.75 180.43-0.38 179.78 0 178.98 0L178.98 0Q178.23 0 177.58-0.38 176.93-0.75 176.93-1.5L176.93-1.5 176.93-14.4Q176.93-15.85 176.13-17.2 175.33-18.55 174.06-19.4 172.78-20.25 171.23-20.25L171.23-20.25Q169.88-20.25 168.63-19.53 167.38-18.8 166.58-17.53 165.78-16.25 165.78-14.4L165.78-14.4 165.78-1.5Q165.78-0.95 165.16-0.48 164.53 0 163.68 0ZM196.98 0.4L196.98 0.4Q193.73 0.4 191.23-0.83 188.73-2.05 187.28-4.23 185.83-6.4 185.83-9.3L185.83-9.3 185.83-14.55Q185.83-17.1 187.2-19.25 188.58-21.4 190.83-22.7 193.08-24 195.78-24L195.78-24Q198.38-24 200.55-22.8 202.73-21.6 204.05-19.55 205.38-17.5 205.38-14.8L205.38-14.8Q205.38-12.8 204.73-11.93 204.08-11.05 203.08-10.85 202.08-10.65 200.98-10.65L200.98-10.65 189.98-10.65 189.98-9.15Q189.98-6.35 191.98-4.73 193.98-3.1 197.13-3.1L197.13-3.1Q198.98-3.1 200.08-3.6 201.18-4.1 201.88-4.58 202.58-5.05 203.13-5.05L203.13-5.05Q203.68-5.05 204.05-4.73 204.43-4.4 204.63-3.95 204.83-3.5 204.83-3.15L204.83-3.15Q204.83-2.5 203.88-1.68 202.93-0.85 201.15-0.23 199.38 0.4 196.98 0.4ZM189.98-15.25L189.98-13.45 199.23-13.45Q200.58-13.45 201-13.78 201.43-14.1 201.43-15.05L201.43-15.05Q201.43-16.55 200.7-17.82 199.98-19.1 198.68-19.9 197.38-20.7 195.73-20.7L195.73-20.7Q194.18-20.7 192.88-19.98 191.58-19.25 190.78-18 189.98-16.75 189.98-15.25L189.98-15.25ZM222.67 0L222.67 0Q221.92 0 221.25-0.35 220.57-0.7 220.57-1.45L220.57-1.45 220.57-35.05Q220.57-35.8 221.17-36.18 221.77-36.55 222.47-36.55L222.47-36.55 240.12-36.55Q240.87-36.55 241.22-35.95 241.57-35.35 241.57-34.7L241.57-34.7Q241.57-33.95 241.2-33.35 240.82-32.75 240.12-32.75L240.12-32.75 224.77-32.75 224.77-20.05 232.62-20.05Q233.32-20.05 233.7-19.5 234.07-18.95 234.07-18.25L234.07-18.25Q234.07-17.65 233.72-17.1 233.37-16.55 232.62-16.55L232.62-16.55 224.77-16.55 224.77-1.45Q224.77-0.7 224.12-0.35 223.47 0 222.67 0ZM249.57 0.4L249.57 0.4Q246.82 0.4 244.57-0.95 242.32-2.3 240.97-4.5 239.62-6.7 239.62-9.2L239.62-9.2 239.62-22.2Q239.62-22.75 240.25-23.23 240.87-23.7 241.72-23.7L241.72-23.7Q242.57-23.7 243.17-23.23 243.77-22.75 243.77-22.2L243.77-22.2 243.77-9.2Q243.77-7.75 244.55-6.4 245.32-5.05 246.62-4.2 247.92-3.35 249.52-3.35L249.52-3.35Q251.12-3.35 252.42-4.2 253.72-5.05 254.47-6.4 255.22-7.75 255.22-9.2L255.22-9.2 255.22-22.25Q255.22-22.85 255.87-23.28 256.52-23.7 257.32-23.7L257.32-23.7Q258.27-23.7 258.82-23.28 259.37-22.85 259.37-22.25L259.37-22.25 259.37-9.2Q259.37-6.65 258.05-4.48 256.72-2.3 254.47-0.95 252.22 0.4 249.57 0.4ZM274.82 0L273.27 0Q269.22 0 267.09-1.8 264.97-3.6 264.97-7.55L264.97-7.55 264.97-33.3Q264.97-33.95 265.62-34.35 266.27-34.75 267.02-34.75L267.02-34.75Q267.82-34.75 268.47-34.35 269.12-33.95 269.12-33.3L269.12-33.3 269.12-23.7 275.42-23.7Q276.02-23.7 276.34-23.2 276.67-22.7 276.67-22.05L276.67-22.05Q276.67-21.4 276.34-20.93 276.02-20.45 275.42-20.45L275.42-20.45 269.12-20.45 269.12-7.55Q269.12-5.4 270.04-4.53 270.97-3.65 273.27-3.65L273.27-3.65 274.82-3.65Q275.72-3.65 276.17-3.1 276.62-2.55 276.62-1.85L276.62-1.85Q276.62-1.15 276.17-0.58 275.72 0 274.82 0L274.82 0ZM290.21 0.4L290.21 0.4Q287.46 0.4 285.21-0.95 282.96-2.3 281.62-4.5 280.26-6.7 280.26-9.2L280.26-9.2 280.26-22.2Q280.26-22.75 280.89-23.23 281.51-23.7 282.37-23.7L282.37-23.7Q283.21-23.7 283.81-23.23 284.42-22.75 284.42-22.2L284.42-22.2 284.42-9.2Q284.42-7.75 285.19-6.4 285.96-5.05 287.26-4.2 288.56-3.35 290.17-3.35L290.17-3.35Q291.76-3.35 293.06-4.2 294.37-5.05 295.12-6.4 295.87-7.75 295.87-9.2L295.87-9.2 295.87-22.25Q295.87-22.85 296.51-23.28 297.17-23.7 297.96-23.7L297.96-23.7Q298.92-23.7 299.46-23.28 300.01-22.85 300.01-22.25L300.01-22.25 300.01-9.2Q300.01-6.65 298.69-4.48 297.37-2.3 295.12-0.95 292.87 0.4 290.21 0.4ZM307.71 0L307.71 0Q306.86 0 306.29-0.48 305.71-0.95 305.71-1.5L305.71-1.5 305.71-22.25Q305.71-22.9 306.29-23.3 306.86-23.7 307.71-23.7L307.71-23.7Q308.56-23.7 309.11-23.3 309.66-22.9 309.66-22.25L309.66-22.25 309.66-19.9Q310.21-20.95 311.16-21.88 312.11-22.8 313.39-23.4 314.66-24 316.21-24L316.21-24 317.91-24Q318.56-24 319.04-23.45 319.51-22.9 319.51-22.1L319.51-22.1Q319.51-21.35 319.04-20.8 318.56-20.25 317.91-20.25L317.91-20.25 316.21-20.25Q314.61-20.25 313.16-19.35 311.71-18.45 310.79-16.82 309.86-15.2 309.86-12.9L309.86-12.9 309.86-1.5Q309.86-0.95 309.24-0.48 308.61 0 307.71 0ZM332.16 0.4L332.16 0.4Q328.91 0.4 326.41-0.83 323.91-2.05 322.46-4.23 321.01-6.4 321.01-9.3L321.01-9.3 321.01-14.55Q321.01-17.1 322.39-19.25 323.76-21.4 326.01-22.7 328.26-24 330.96-24L330.96-24Q333.56-24 335.74-22.8 337.91-21.6 339.24-19.55 340.56-17.5 340.56-14.8L340.56-14.8Q340.56-12.8 339.91-11.93 339.26-11.05 338.26-10.85 337.26-10.65 336.16-10.65L336.16-10.65 325.16-10.65 325.16-9.15Q325.16-6.35 327.16-4.73 329.16-3.1 332.31-3.1L332.31-3.1Q334.16-3.1 335.26-3.6 336.36-4.1 337.06-4.58 337.76-5.05 338.31-5.05L338.31-5.05Q338.86-5.05 339.24-4.73 339.61-4.4 339.81-3.95 340.01-3.5 340.01-3.15L340.01-3.15Q340.01-2.5 339.06-1.68 338.11-0.85 336.34-0.23 334.56 0.4 332.16 0.4ZM325.16-15.25L325.16-13.45 334.41-13.45Q335.76-13.45 336.19-13.78 336.61-14.1 336.61-15.05L336.61-15.05Q336.61-16.55 335.89-17.82 335.16-19.1 333.86-19.9 332.56-20.7 330.91-20.7L330.91-20.7Q329.36-20.7 328.06-19.98 326.76-19.25 325.96-18 325.16-16.75 325.16-15.25L325.16-15.25ZM345.96 4.45L345.96 4.45Q345.46 4.45 344.96 4.13 344.46 3.8 344.46 3.25L344.46 3.25Q344.46 2.95 344.61 2.7L344.61 2.7 345.61 0.1Q344.91-0.2 344.46-0.85 344.01-1.5 344.01-2.3L344.01-2.3Q344.01-3.4 344.76-4.17 345.51-4.95 346.61-4.95L346.61-4.95Q347.61-4.95 348.41-4.23 349.21-3.5 349.21-2.3L349.21-2.3Q349.21-2.15 349.16-1.88 349.11-1.6 348.91-1 348.71-0.4 348.26 0.73 347.81 1.85 347.06 3.75L347.06 3.75Q346.91 4.1 346.58 4.28 346.26 4.45 345.96 4.45ZM375 0.3L375 0.3Q371.95 0.3 369.53-0.78 367.1-1.85 365.68-4.23 364.25-6.6 364.25-10.6L364.25-10.6 364.25-25.65Q364.25-29.65 365.68-32.02 367.1-34.4 369.53-35.48 371.95-36.55 375-36.55L375-36.55Q378.05-36.55 380.5-35.48 382.95-34.4 384.38-32.02 385.8-29.65 385.8-25.65L385.8-25.65 385.8-10.6Q385.8-6.6 384.38-4.23 382.95-1.85 380.5-0.78 378.05 0.3 375 0.3ZM375-3.5L375-3.5Q378.1-3.5 379.85-5.23 381.6-6.95 381.6-10.6L381.6-10.6 381.6-25.65Q381.6-29.3 379.85-31.03 378.1-32.75 375-32.75L375-32.75Q371.9-32.75 370.18-31.03 368.45-29.3 368.45-25.65L368.45-25.65 368.45-10.6Q368.45-6.95 370.18-5.23 371.9-3.5 375-3.5ZM393.8 0L393.8 0Q392.9 0 392.33-0.48 391.75-0.95 391.75-1.5L391.75-1.5 391.75-22.25Q391.75-22.9 392.33-23.3 392.9-23.7 393.8-23.7L393.8-23.7Q394.6-23.7 395.15-23.3 395.7-22.9 395.7-22.25L395.7-22.25 395.7-20.2Q396.5-21.65 398.2-22.83 399.9-24 402.4-24L402.4-24Q404.8-24 406.8-22.68 408.8-21.35 410-19.2 411.2-17.05 411.2-14.4L411.2-14.4 411.2-1.5Q411.2-0.75 410.55-0.38 409.9 0 409.1 0L409.1 0Q408.35 0 407.7-0.38 407.05-0.75 407.05-1.5L407.05-1.5 407.05-14.4Q407.05-15.85 406.28-17.2 405.5-18.55 404.2-19.4 402.9-20.25 401.35-20.25L401.35-20.25Q400-20.25 398.75-19.53 397.5-18.8 396.7-17.53 395.9-16.25 395.9-14.4L395.9-14.4 395.9-1.5Q395.9-0.95 395.28-0.48 394.65 0 393.8 0ZM427.1 0.4L427.1 0.4Q423.85 0.4 421.35-0.83 418.85-2.05 417.4-4.23 415.95-6.4 415.95-9.3L415.95-9.3 415.95-14.55Q415.95-17.1 417.32-19.25 418.7-21.4 420.95-22.7 423.2-24 425.9-24L425.9-24Q428.5-24 430.67-22.8 432.85-21.6 434.17-19.55 435.5-17.5 435.5-14.8L435.5-14.8Q435.5-12.8 434.85-11.93 434.2-11.05 433.2-10.85 432.2-10.65 431.1-10.65L431.1-10.65 420.1-10.65 420.1-9.15Q420.1-6.35 422.1-4.73 424.1-3.1 427.25-3.1L427.25-3.1Q429.1-3.1 430.2-3.6 431.3-4.1 432-4.58 432.7-5.05 433.25-5.05L433.25-5.05Q433.8-5.05 434.17-4.73 434.55-4.4 434.75-3.95 434.95-3.5 434.95-3.15L434.95-3.15Q434.95-2.5 434-1.68 433.05-0.85 431.27-0.23 429.5 0.4 427.1 0.4ZM420.1-15.25L420.1-13.45 429.35-13.45Q430.7-13.45 431.12-13.78 431.55-14.1 431.55-15.05L431.55-15.05Q431.55-16.55 430.82-17.82 430.1-19.1 428.8-19.9 427.5-20.7 425.85-20.7L425.85-20.7Q424.3-20.7 423-19.98 421.7-19.25 420.9-18 420.1-16.75 420.1-15.25L420.1-15.25ZM468.59 0L452.59 0Q451.89 0 451.29-0.38 450.69-0.75 450.69-1.5L450.69-1.5 450.69-35.1Q450.69-35.85 451.37-36.2 452.04-36.55 452.79-36.55L452.79-36.55Q453.59-36.55 454.24-36.2 454.89-35.85 454.89-35.1L454.89-35.1 454.89-3.8 468.59-3.8Q469.29-3.8 469.62-3.23 469.94-2.65 469.94-1.9L469.94-1.9Q469.94-1.2 469.62-0.6 469.29 0 468.59 0L468.59 0ZM475.54 0L475.54 0Q474.64 0 474.07-0.48 473.49-0.95 473.49-1.5L473.49-1.5 473.49-22.25Q473.49-22.9 474.07-23.3 474.64-23.7 475.54-23.7L475.54-23.7Q476.39-23.7 477.02-23.3 477.64-22.9 477.64-22.25L477.64-22.25 477.64-1.5Q477.64-0.95 477.02-0.48 476.39 0 475.54 0ZM475.54-30.2L475.54-30.2Q474.44-30.2 473.69-30.93 472.94-31.65 472.94-32.6L472.94-32.6Q472.94-33.55 473.69-34.25 474.44-34.95 475.54-34.95L475.54-34.95Q476.59-34.95 477.34-34.25 478.09-33.55 478.09-32.6L478.09-32.6Q478.09-31.65 477.34-30.93 476.59-30.2 475.54-30.2ZM485.54 0L485.54 0Q484.64 0 484.06-0.48 483.49-0.95 483.49-1.5L483.49-1.5 483.49-22.25Q483.49-22.9 484.06-23.3 484.64-23.7 485.54-23.7L485.54-23.7Q486.34-23.7 486.89-23.3 487.44-22.9 487.44-22.25L487.44-22.25 487.44-20.2Q488.24-21.65 489.94-22.83 491.64-24 494.14-24L494.14-24Q496.54-24 498.54-22.68 500.54-21.35 501.74-19.2 502.94-17.05 502.94-14.4L502.94-14.4 502.94-1.5Q502.94-0.75 502.29-0.38 501.64 0 500.84 0L500.84 0Q500.09 0 499.44-0.38 498.79-0.75 498.79-1.5L498.79-1.5 498.79-14.4Q498.79-15.85 498.01-17.2 497.24-18.55 495.94-19.4 494.64-20.25 493.09-20.25L493.09-20.25Q491.74-20.25 490.49-19.53 489.24-18.8 488.44-17.53 487.64-16.25 487.64-14.4L487.64-14.4 487.64-1.5Q487.64-0.95 487.01-0.48 486.39 0 485.54 0ZM518.84 0.4L518.84 0.4Q515.59 0.4 513.09-0.83 510.59-2.05 509.14-4.23 507.69-6.4 507.69-9.3L507.69-9.3 507.69-14.55Q507.69-17.1 509.06-19.25 510.44-21.4 512.69-22.7 514.94-24 517.64-24L517.64-24Q520.24-24 522.41-22.8 524.59-21.6 525.91-19.55 527.24-17.5 527.24-14.8L527.24-14.8Q527.24-12.8 526.59-11.93 525.94-11.05 524.94-10.85 523.94-10.65 522.84-10.65L522.84-10.65 511.84-10.65 511.84-9.15Q511.84-6.35 513.84-4.73 515.84-3.1 518.99-3.1L518.99-3.1Q520.84-3.1 521.94-3.6 523.04-4.1 523.74-4.58 524.44-5.05 524.99-5.05L524.99-5.05Q525.54-5.05 525.91-4.73 526.29-4.4 526.49-3.95 526.69-3.5 526.69-3.15L526.69-3.15Q526.69-2.5 525.74-1.68 524.79-0.85 523.01-0.23 521.24 0.4 518.84 0.4ZM511.84-15.25L511.84-13.45 521.09-13.45Q522.44-13.45 522.86-13.78 523.29-14.1 523.29-15.05L523.29-15.05Q523.29-16.55 522.56-17.82 521.84-19.1 520.54-19.9 519.24-20.7 517.59-20.7L517.59-20.7Q516.04-20.7 514.74-19.98 513.44-19.25 512.64-18 511.84-16.75 511.84-15.25L511.84-15.25ZM547.03 0.4L547.03 0.4Q544.23 0.4 542.25-1.23 540.28-2.85 540.28-6.25L540.28-6.25Q540.28-9 541.78-10.53 543.28-12.05 545.9-12.63 548.53-13.2 551.98-13.2L551.98-13.2 554.38-13.2 554.38-14.25Q554.38-15.75 553.83-17.18 553.28-18.6 552.11-19.53 550.93-20.45 548.88-20.45L548.88-20.45Q547.13-20.45 546.11-20.1 545.08-19.75 544.48-19.38 543.88-19 543.43-19L543.43-19Q542.68-19 542.28-19.73 541.88-20.45 541.88-21.1L541.88-21.1Q541.88-21.9 542.98-22.55 544.08-23.2 545.73-23.6 547.38-24 548.98-24L548.98-24Q552.48-24 554.58-22.6 556.68-21.2 557.61-19 558.53-16.8 558.53-14.3L558.53-14.3 558.53-1.5Q558.53-0.9 557.96-0.45 557.38 0 556.48 0L556.48 0Q555.68 0 555.13-0.45 554.58-0.9 554.58-1.5L554.58-1.5 554.58-3.5Q553.28-2 551.43-0.8 549.58 0.4 547.03 0.4ZM548.33-2.95L548.33-2.95Q549.78-2.95 551.15-3.75 552.53-4.55 553.46-5.75 554.38-6.95 554.38-8.05L554.38-8.05 554.38-10.65 552.63-10.65Q550.53-10.65 548.65-10.4 546.78-10.15 545.63-9.33 544.48-8.5 544.48-6.7L544.48-6.7Q544.48-4.75 545.58-3.85 546.68-2.95 548.33-2.95ZM573.93 0L572.38 0Q568.33 0 566.2-1.8 564.08-3.6 564.08-7.55L564.08-7.55 564.08-33.3Q564.08-33.95 564.73-34.35 565.38-34.75 566.13-34.75L566.13-34.75Q566.93-34.75 567.58-34.35 568.23-33.95 568.23-33.3L568.23-33.3 568.23-23.7 574.53-23.7Q575.13-23.7 575.45-23.2 575.78-22.7 575.78-22.05L575.78-22.05Q575.78-21.4 575.45-20.93 575.13-20.45 574.53-20.45L574.53-20.45 568.23-20.45 568.23-7.55Q568.23-5.4 569.15-4.53 570.08-3.65 572.38-3.65L572.38-3.65 573.93-3.65Q574.83-3.65 575.28-3.1 575.73-2.55 575.73-1.85L575.73-1.85Q575.73-1.15 575.28-0.58 574.83 0 573.93 0L573.93 0ZM594.82 0.4L594.82 0.4Q592.02 0.4 590.05-1.23 588.07-2.85 588.07-6.25L588.07-6.25Q588.07-9 589.57-10.53 591.07-12.05 593.7-12.63 596.32-13.2 599.77-13.2L599.77-13.2 602.17-13.2 602.17-14.25Q602.17-15.75 601.62-17.18 601.07-18.6 599.9-19.53 598.72-20.45 596.67-20.45L596.67-20.45Q594.92-20.45 593.9-20.1 592.87-19.75 592.27-19.38 591.67-19 591.22-19L591.22-19Q590.47-19 590.07-19.73 589.67-20.45 589.67-21.1L589.67-21.1Q589.67-21.9 590.77-22.55 591.87-23.2 593.52-23.6 595.17-24 596.77-24L596.77-24Q600.27-24 602.37-22.6 604.47-21.2 605.4-19 606.32-16.8 606.32-14.3L606.32-14.3 606.32-1.5Q606.32-0.9 605.75-0.45 605.17 0 604.27 0L604.27 0Q603.47 0 602.92-0.45 602.37-0.9 602.37-1.5L602.37-1.5 602.37-3.5Q601.07-2 599.22-0.8 597.37 0.4 594.82 0.4ZM596.12-2.95L596.12-2.95Q597.57-2.95 598.95-3.75 600.32-4.55 601.25-5.75 602.17-6.95 602.17-8.05L602.17-8.05 602.17-10.65 600.42-10.65Q598.32-10.65 596.45-10.4 594.57-10.15 593.42-9.33 592.27-8.5 592.27-6.7L592.27-6.7Q592.27-4.75 593.37-3.85 594.47-2.95 596.12-2.95ZM631.27 0L631.27 0Q630.47 0 629.82-0.38 629.17-0.75 629.17-1.5L629.17-1.5 629.17-32.65 621.07-32.65Q620.42-32.65 620.02-33.25 619.62-33.85 619.62-34.65L619.62-34.65Q619.62-35.35 619.97-35.95 620.32-36.55 621.07-36.55L621.07-36.55 641.47-36.55Q642.22-36.55 642.57-35.95 642.92-35.35 642.92-34.65L642.92-34.65Q642.92-33.9 642.57-33.27 642.22-32.65 641.47-32.65L641.47-32.65 633.37-32.65 633.37-1.5Q633.37-0.75 632.72-0.38 632.07 0 631.27 0ZM648.01 0L648.01 0Q647.11 0 646.54-0.48 645.96-0.95 645.96-1.5L645.96-1.5 645.96-22.25Q645.96-22.9 646.54-23.3 647.11-23.7 648.01-23.7L648.01-23.7Q648.86-23.7 649.49-23.3 650.11-22.9 650.11-22.25L650.11-22.25 650.11-1.5Q650.11-0.95 649.49-0.48 648.86 0 648.01 0ZM648.01-30.2L648.01-30.2Q646.91-30.2 646.16-30.93 645.41-31.65 645.41-32.6L645.41-32.6Q645.41-33.55 646.16-34.25 646.91-34.95 648.01-34.95L648.01-34.95Q649.06-34.95 649.81-34.25 650.56-33.55 650.56-32.6L650.56-32.6Q650.56-31.65 649.81-30.93 649.06-30.2 648.01-30.2ZM658.01 0L658.01 0Q657.11 0 656.54-0.48 655.96-0.95 655.96-1.5L655.96-1.5 655.96-22.25Q655.96-22.9 656.54-23.3 657.11-23.7 658.01-23.7L658.01-23.7Q658.81-23.7 659.36-23.3 659.91-22.9 659.91-22.25L659.91-22.25 659.91-20.2Q660.76-21.65 662.41-22.83 664.06-24 666.56-24L666.56-24Q668.96-24 670.76-22.6 672.56-21.2 673.41-19L673.41-19Q674.71-21.55 676.76-22.78 678.81-24 680.96-24L680.96-24Q683.16-24 685.14-22.88 687.11-21.75 688.34-19.6 689.56-17.45 689.56-14.4L689.56-14.4 689.56-1.5Q689.56-0.95 688.94-0.48 688.31 0 687.46 0L687.46 0Q686.61 0 686.01-0.48 685.41-0.95 685.41-1.5L685.41-1.5 685.41-14.4Q685.41-16.3 684.64-17.6 683.86-18.9 682.64-19.58 681.41-20.25 680.16-20.25L680.16-20.25Q678.81-20.25 677.61-19.55 676.41-18.85 675.61-17.6 674.81-16.35 674.81-14.55L674.81-14.55 674.81-1.45Q674.81-0.7 674.16-0.35 673.51 0 672.71 0L672.71 0Q672.01 0 671.34-0.35 670.66-0.7 670.66-1.45L670.66-1.45 670.66-14.5Q670.66-16.2 669.94-17.5 669.21-18.8 668.04-19.53 666.86-20.25 665.46-20.25L665.46-20.25Q664.11-20.25 662.89-19.55 661.66-18.85 660.89-17.57 660.11-16.3 660.11-14.4L660.11-14.4 660.11-1.5Q660.11-0.95 659.49-0.48 658.86 0 658.01 0ZM705.46 0.4L705.46 0.4Q702.21 0.4 699.71-0.83 697.21-2.05 695.76-4.23 694.31-6.4 694.31-9.3L694.31-9.3 694.31-14.55Q694.31-17.1 695.68-19.25 697.06-21.4 699.31-22.7 701.56-24 704.26-24L704.26-24Q706.86-24 709.03-22.8 711.21-21.6 712.53-19.55 713.86-17.5 713.86-14.8L713.86-14.8Q713.86-12.8 713.21-11.93 712.56-11.05 711.56-10.85 710.56-10.65 709.46-10.65L709.46-10.65 698.46-10.65 698.46-9.15Q698.46-6.35 700.46-4.73 702.46-3.1 705.61-3.1L705.61-3.1Q707.46-3.1 708.56-3.6 709.66-4.1 710.36-4.58 711.06-5.05 711.61-5.05L711.61-5.05Q712.16-5.05 712.53-4.73 712.91-4.4 713.11-3.95 713.31-3.5 713.31-3.15L713.31-3.15Q713.31-2.5 712.36-1.68 711.41-0.85 709.63-0.23 707.86 0.4 705.46 0.4ZM698.46-15.25L698.46-13.45 707.71-13.45Q709.06-13.45 709.48-13.78 709.91-14.1 709.91-15.05L709.91-15.05Q709.91-16.55 709.18-17.82 708.46-19.1 707.16-19.9 705.86-20.7 704.21-20.7L704.21-20.7Q702.66-20.7 701.36-19.98 700.06-19.25 699.26-18 698.46-16.75 698.46-15.25L698.46-15.25Z" opacity="1" transform="matrix(1,0,0,1,0,0)" fill="#ffffff" class="slogan-text-1" data-fill-palette-color="secondary" id="text-1"></path></svg></g></svg></g></svg></g></svg></g><g transform="matrix(1,0,0,1,0,40.63971579387569)"><svg viewBox="0 0 128.544 127.79429742069031" height="127.79429742069031" width="128.544"><g><svg xmlns="http://www.w3.org/2000/svg" viewBox="20 20.17376136779785 60.018585205078125 59.668540954589844" x="0" y="0" height="127.79429742069031" width="128.544" class="icon-icon-0" data-fill-palette-color="accent" id="icon-0"><g data-name="Calque 2" fill="#ffffff" data-fill-palette-color="accent"><path d="M23.82 23.07A1.82 1.82 0 1 1 22 24.88 1.82 1.82 0 0 1 23.82 23.07Zm0 5.58a3.73 3.73 0 0 0 2-0.56c2.07 1.44 9.08 6.45 10.21 7.14a6.25 6.25 0 0 0 3.19 1.25c0.63 0 2 0.06 4.13 0.06A2.75 2.75 0 0 0 45.8 38a2.76 2.76 0 1 0-2.69-3.32c-1.94 0-3.26 0-3.82-0.06A3.81 3.81 0 0 1 37 33.71c-1-0.63-7.64-5.39-9.9-7A4 4 0 0 0 27.57 25a3.7 3.7 0 0 0-3.7-3.7 3.74 3.74 0 0 0-3.7 3.7A3.6 3.6 0 0 0 23.82 28.64Z" fill="#ffffff" data-fill-palette-color="accent"></path><path d="M22.13 44.61a1.82 1.82 0 1 1 1.82 1.82A1.78 1.78 0 0 1 22.13 44.61Zm5.39 0.94H33a2.71 2.71 0 0 0 2.57 1.82 2.76 2.76 0 0 0 0-5.51A2.71 2.71 0 0 0 33 43.67H27.52a3.76 3.76 0 0 0-3.57-2.76 3.7 3.7 0 0 0-3.7 3.7 3.74 3.74 0 0 0 3.7 3.7A3.52 3.52 0 0 0 27.52 45.55Z" fill="#ffffff" data-fill-palette-color="accent"></path><path d="M28.33 49.87a1.82 1.82 0 1 1-1.82 1.82A1.82 1.82 0 0 1 28.33 49.87Zm0 5.58a3.7 3.7 0 0 0 3.57-2.76H33a2.72 2.72 0 0 0 2.57 1.82 2.76 2.76 0 0 0 0-5.51A2.71 2.71 0 0 0 33 50.81H31.9a3.76 3.76 0 0 0-3.57-2.76 3.7 3.7 0 0 0 0 7.39Z" fill="#ffffff" data-fill-palette-color="accent"></path><path d="M23.7 75.24a1.82 1.82 0 1 1 1.82-1.82A1.78 1.78 0 0 1 23.7 75.24Zm1.06-5.39V63.4c0-2.94 1-3.57 2.69-3.57 2.07 0 4.38 0 5.39 0.06a2.73 2.73 0 0 0 2.63 1.82 2.76 2.76 0 1 0 0-5.51A2.71 2.71 0 0 0 32.9 58c-1.06 0-3.38-0.06-5.39-0.06-4.64 0-4.64 4.07-4.64 5.45v6.39A3.76 3.76 0 0 0 20 73.42a3.7 3.7 0 0 0 3.7 3.7 3.74 3.74 0 0 0 3.7-3.7A3.58 3.58 0 0 0 24.76 69.86Z" fill="#ffffff" data-fill-palette-color="accent"></path><path d="M75.06 75.24a1.82 1.82 0 1 1 1.82-1.82A1.82 1.82 0 0 1 75.06 75.24Zm0.81-5.45V63.4c0-1.31 0-5.45-4.57-5.45-2.07 0-4.38 0-5.39 0.06a2.71 2.71 0 0 0-2.57-1.82 2.76 2.76 0 1 0 0 5.51A2.85 2.85 0 0 0 66 59.9c1.06 0 3.38-0.06 5.39-0.06C73 59.83 74 60.4 74 63.4v6.45a3.7 3.7 0 0 0 1 7.26 3.71 3.71 0 0 0 0.82-7.33Z" fill="#ffffff" data-fill-palette-color="accent"></path><path d="M72.42 23.69A1.57 1.57 0 1 1 74 25.26 1.59 1.59 0 0 1 72.42 23.69ZM63.59 47.37A2.76 2.76 0 0 0 66 45.86h4.57c4.26 0 4.26-3.76 4.26-5V27a3.46 3.46 0 1 0-4.26-3.38A3.44 3.44 0 0 0 73.05 27v13.9c0 2.63-0.82 3.13-2.38 3.13H66.35a2.75 2.75 0 0 0-5.45 0.56A2.63 2.63 0 0 0 63.59 47.37Z" fill="#ffffff" data-fill-palette-color="accent"></path><path d="M76.37 50.13a1.82 1.82 0 1 1-1.82 1.82A1.78 1.78 0 0 1 76.37 50.13Zm-13 4.57A2.71 2.71 0 0 0 66 52.88h6.77a3.76 3.76 0 0 0 3.57 2.76A3.7 3.7 0 1 0 72.74 51H66a2.71 2.71 0 0 0-2.57-1.82 2.78 2.78 0 0 0-2.76 2.76A2.73 2.73 0 0 0 63.4 54.7Z" fill="#ffffff" data-fill-palette-color="accent"></path><rect x="40.48" y="39.98" width="18.04" height="23.93" rx="3.95" ry="3.95" fill="#ffffff" data-fill-palette-color="accent"></rect><path d="M40.48 24.45a1.82 1.82 0 1 1-1.82 1.82A1.86 1.86 0 0 1 40.48 24.45Zm0 5.58A3.7 3.7 0 0 0 44 27.33h6.26c0.69 0 1.31 0 1.57 0.25s0.31 0.44 0.31 1.25c0 1.13 0 2.63-0.06 3.82a2.76 2.76 0 1 0 3.76 2.57 2.76 2.76 0 0 0-1.94-2.63c0-1.19 0.06-2.63 0.06-3.76a3.32 3.32 0 0 0-0.82-2.57 3.69 3.69 0 0 0-2.88-0.75h-6.2A3.71 3.71 0 1 0 40.48 30Z" fill="#ffffff" data-fill-palette-color="accent"></path><path d="M35 76.18a1.82 1.82 0 1 1-1.82-1.82A1.78 1.78 0 0 1 35 76.18ZM45.8 66A2.71 2.71 0 0 0 43.3 67.6h-7c-1.31 0-4.07 0-4.07 3.7v1.25a3.68 3.68 0 0 0 0.88 7.27 3.74 3.74 0 0 0 3.7-3.7 3.7 3.7 0 0 0-2.69-3.57c0-0.37-0.06-0.82-0.06-1.25 0-1.69 0.56-1.82 2.19-1.82h6.83a2.69 2.69 0 0 0 2.63 2 2.78 2.78 0 0 0 2.76-2.76A2.69 2.69 0 0 0 45.8 66Z" fill="#ffffff" data-fill-palette-color="accent"></path><path d="M62.71 78a1.82 1.82 0 0 1-1.82-1.82 1.87 1.87 0 0 1 1.82-1.88 1.82 1.82 0 0 1 1.82 1.82A1.87 1.87 0 0 1 62.71 78Zm0.88-5.45V71.29c0-3.7-2.76-3.7-4.07-3.7H55.7A2.67 2.67 0 0 0 53.2 66a2.76 2.76 0 1 0 2.63 3.51h3.7c1.63 0 2.19 0.12 2.19 1.82a8.09 8.09 0 0 1-0.06 1.25 3.7 3.7 0 1 0 4.7 3.57A3.57 3.57 0 0 0 63.59 72.55Z" fill="#ffffff" data-fill-palette-color="accent"></path></g></svg></g></svg></g></svg></g></svg></g></svg></g><defs></defs></svg><rect width="320" height="360" fill="none" stroke="none" visibility="hidden"></rect></g></svg></g></svg>